<svg xmlns="http://www.w3.org/2000/svg" xmlns:xlink="http://www.w3.org/1999/xlink" viewBox="0 0 2409.18 622.84"><defs><style>.cls-1,.cls-26{fill:none;}.cls-2{clip-path:url(#clip-path);}.cls-3{fill:#df2259;}.cls-4{fill:#ee5294;}.cls-5{fill:#b2345b;}.cls-6{fill:#cc3171;}.cls-7{fill:#ed3e74;}.cls-8{fill:#ad305e;}.cls-9{fill:#d14377;}.cls-10{fill:#991b41;}.cls-11{fill:#d52758;}.cls-12{fill:#ac1d45;}.cls-13{fill:#cc3766;}.cls-14{fill:#881840;}.cls-15{fill:#cf3e73;}.cls-16{fill:#c02457;}.cls-17{fill:#962f5a;}.cls-18{fill:#b23662;}.cls-19{fill:#962a4c;}.cls-20{fill:#b23065;}.cls-21{fill:#9d1d50;}.cls-22{fill:#b73765;}.cls-23{fill:#ba245c;}.cls-24{fill:#f75791;}.cls-25{fill:#c8235a;}.cls-26{stroke:#fff;stroke-miterlimit:10;stroke-width:0.25px;}.cls-27{fill:#f290bb;}.cls-28{fill:#db3e78;}.cls-29{font-size:470.67px;fill:#4d4d4d;font-family:TimeBurner-Bold, TimeBurner;font-weight:700;}</style><clipPath id="clip-path"><path class="cls-1" d="M333.65,133.92s-123.12-191-279.5-24.57c0,0-79.68,127,11.24,236.81C168.09,470.14,335,602.4,335,602.4s237.5-196,271.11-258.48C651.75,259,680.74,156.7,570.47,72.48c-26.17-20-12.57-8.94-12.57-8.94s-57.63-51.38-156.26,6.08C401.64,69.62,371.38,79.18,333.65,133.92Z"/></clipPath></defs><title>Asset 3</title><g id="Layer_2" data-name="Layer 2"><g id="Layer_1-2" data-name="Layer 1"><g class="cls-2"><polyline class="cls-3" points="338.78 143.73 419.62 189.27 377.4 52.14 330.67 138.46"/><polygon class="cls-4" points="377.4 52.14 458.1 9.31 488.72 72.16 377.4 52.14"/><polyline class="cls-5" points="379.89 51.52 489.75 72 418.79 188.44 377.4 52.14"/><polygon class="cls-6" points="420.86 189.94 430.37 293.94 331.07 136.02 420.86 189.94"/><polygon class="cls-7" points="430.37 293.94 567.76 194.65 418.79 188.44 430.37 293.94"/><polygon class="cls-8" points="418.79 188.44 491.62 144.01 566.73 194.91 418.79 188.44"/><polygon class="cls-9" points="489.75 72 493.36 145.76 418.79 188.44 489.75 72"/><polygon class="cls-7" points="458.1 9.31 525.76 0 488.72 72.16 458.1 9.31"/><polyline class="cls-10" points="528.25 0 591.56 34.14 488.72 72.16 525.76 0"/><polygon class="cls-11" points="591.56 34.14 587.21 142.92 488.72 72.16 591.56 34.14"/><polygon class="cls-12" points="489.75 72 588.45 143.39 566.73 194.91 489.75 72"/><polygon class="cls-13" points="489.75 72 491.71 144.64 567.35 195.89 489.75 72"/><polygon class="cls-14" points="588.45 143.39 657.35 252.02 668.53 181.25 588.45 143.39"/><polygon class="cls-15" points="587.21 142.92 668.53 181.25 659.84 117.94 587.21 142.92"/><polygon class="cls-16" points="591.56 34.14 659.84 117.94 586.79 143.75 591.56 34.14"/><polygon class="cls-17" points="588.45 143.39 566.73 194.91 657.35 252.02 588.45 143.39"/><polygon class="cls-18" points="566.73 194.91 563.21 286.05 657.35 252.02 566.73 194.91"/><polyline class="cls-19" points="564.47 198.01 480.67 328.67 565.5 286.46 566.95 194.6"/><polygon class="cls-13" points="566.73 194.91 428.31 295.47 480.45 328.67 566.73 194.91"/><polygon class="cls-13" points="423.5 288.64 423.91 423.84 481.23 400.99 423.5 288.64"/><polygon class="cls-20" points="481.5 400.99 482.13 327.75 472.19 322.05 423.77 288.64 481.5 400.99"/><polygon class="cls-21" points="481.5 327.75 480.88 400.99 550.4 415.89 481.5 327.75"/><polygon class="cls-22" points="481.69 327.75 564.25 286.15 550.59 415.89 481.69 327.75"/><polygon class="cls-17" points="562.38 285.22 657.35 252.02 621.35 325.26 562.38 285.22"/><polygon class="cls-19" points="564.45 285.22 621.35 325.26 550.59 415.89 564.45 285.22"/><polyline class="cls-14" points="481.06 400.99 550.59 415.89 472.58 487.54 481.69 403.48 472.58 487.54 425.41 422.99"/><polygon class="cls-18" points="425.82 422.1 374.1 495.82 472.58 487.54 425.82 422.1"/><polyline class="cls-17" points="373.68 493.75 404.72 545.62 473.62 487.27 377.4 493.77"/><polygon class="cls-19" points="273.74 509.62 329.05 605.82 404.72 545.62 273.74 509.62"/><polygon class="cls-14" points="271.84 509.67 373.68 493.75 404.72 545.62 271.84 509.67"/><polygon class="cls-23" points="273.74 509.62 352.99 407.72 374.92 493.8 273.74 509.62"/><polygon class="cls-6" points="351.33 407.2 425.82 422.1 374.92 494.72 351.33 407.2"/><polygon class="cls-11" points="350.66 408.1 423.5 288.64 424.74 422.58 350.66 408.1"/><polyline class="cls-22" points="224.98 512.1 273.74 509.62 329.65 605.82 209.76 513.92"/><polygon class="cls-12" points="230.49 451.59 211.59 514.53 273.74 509.62 230.49 451.59"/><polygon class="cls-13" points="230.91 453.75 352.99 407.72 273.74 509.62 230.91 453.75"/><polygon class="cls-17" points="169.46 476.72 230.08 454.09 211.59 515.14 169.46 476.72"/><polygon class="cls-20" points="178.77 378.02 169.46 476.72 230.91 453.75 178.77 378.02"/><polygon class="cls-24" points="168.84 293.17 230.91 453.75 178.77 378.02 168.84 293.17"/><polygon class="cls-7" points="168.84 293.17 283.47 351.44 230.91 453.75 168.84 293.17"/><polygon class="cls-17" points="283.47 349.79 352.99 407.72 230.91 453.75 283.47 349.79"/><polygon class="cls-7" points="282.43 350.71 325.26 227.19 351.33 407.2 282.43 350.71"/><polygon class="cls-15" points="325.26 228.51 423.34 288.64 350.92 409.34 325.26 228.51"/><polygon class="cls-25" points="329.1 129.26 325.26 228.51 430.37 293.94 329.1 129.26"/><polygon class="cls-5" points="169.25 291.91 94.35 397.27 178.77 378.02 169.25 291.91"/><polygon class="cls-19" points="94.35 397.27 179.18 377.14 169.46 476.72 94.35 397.27"/><polygon class="cls-15" points="92.69 307.21 168.84 293.17 94.35 397.27 92.69 307.21"/><polygon class="cls-18" points="97.66 239.79 94.97 308.5 168.84 293.17 97.66 239.79"/><polyline class="cls-9" points="148.97 205.46 254.5 210.83 168.84 294.23 96.42 238.96 148.97 205.46 167.6 291.12"/><polygon class="cls-13" points="254.5 210.83 269.81 281.6 168.84 294.23 254.5 210.83"/><polyline class="cls-3" points="269.81 281.6 170.49 294 282.43 350.71 272.29 290.27"/><polygon class="cls-13" points="269.81 281.6 325.26 227.19 282.43 350.71 269.81 281.6"/><polygon class="cls-14" points="94.5 306.41 94.09 397.27 18.98 286.78 94.5 306.41"/><polygon class="cls-17" points="96 307.24 0 204.2 19.24 286.78 96 307.24"/><polygon class="cls-16" points="0 205.46 82.76 120.83 98.7 240.22 0 205.46"/><polygon class="cls-4" points="1.24 205.44 98.28 238.77 94.77 306.41 1.24 205.44"/><polygon class="cls-12" points="83.18 122.28 147.12 206.7 98.28 238.77 83.18 122.28"/><polygon class="cls-19" points="82.76 120.83 12.42 99.32 0 205.46 82.76 120.83"/><polygon class="cls-16" points="12.42 99.32 68.9 29.8 82.76 120.83 12.42 99.32"/><polygon class="cls-4" points="68.9 29.8 160.15 1.24 83.18 122.28 68.9 29.8"/><path class="cls-26" d="M86.28,124.15"/><polygon class="cls-16" points="160.15 1.24 208.57 10.55 171.32 92.49 160.15 1.24"/><polyline class="cls-27" points="83.18 122.28 160.15 1.24 171.32 92.49 86.28 124.14"/><polygon class="cls-28" points="208.57 10.55 276.85 47.8 171.32 92.49 208.57 10.55"/><polygon class="cls-12" points="276.85 47.81 331.48 133.6 241.46 134.09 276.85 47.81"/><polygon class="cls-16" points="171.32 92.49 276.85 47.8 241.46 134.08 171.32 92.49"/><polygon class="cls-13" points="82.76 123.53 171.32 92.49 147.12 206.7 82.76 123.53"/><polygon class="cls-9" points="171.32 92.49 241.46 134.08 147.12 206.7 171.32 92.49"/><polygon class="cls-6" points="241.46 133.6 331.07 132.71 326.21 228.46 241.46 133.6"/><polyline class="cls-4" points="241.67 142.14 255.21 215.14 325.26 227.19 241.46 134.08"/><path class="cls-26" d="M239.61,143.39"/><polygon class="cls-18" points="254.8 213.51 325.26 227.19 269.81 281.6 254.8 213.51"/><polyline class="cls-13" points="159.73 197.18 241.46 134.08 255.21 214.32 148.97 205.46"/></g><text class="cls-29" transform="translate(800 468.94)">Happify</text></g></g></svg>